#!OML:ASF F:\VICON\USERDATA\INSTALL\rory3\rory3.ASF
:FULLY-SPECIFIED
:DEGREES
19
root 0.1313845433209409 17.931600263970438 -23.36868658067393 6.744304731333409 -1.7672196196724694 -4.919269778954018
lfemur -43.19798604672484 6.5309260750762395 -13.388009886456317
ltibia 92.83678631291717
lfoot 8.21427787456116 -13.258994628270734
ltoes -8.626554608294215
rfemur -2.908606307628723 6.968060796083444 33.76529118952991
rtibia 37.84120781148566
rfoot -11.596788698561907 -9.709822854695638
rtoes -17.87818205710222
lowerback 15.569095119407685 1.2532462813240925 5.14478960969318
upperback -1.1657260074453104 2.8864430956898746 2.510361402328747
thorax -9.924000727627151 1.177654027170104 -0.8730292615663053
lowerneck -18.411001134301497 -4.891484152183629 -3.020853246638812
upperneck 11.048886743028696 -6.41351498948149 3.774386838498225
head 6.582958986011455 -2.8966141631439246 0.9999104651805879
lclavicle -1.3367476247442021e-15 -2.758979367064353e-15
lhumerus -57.57329332459214 -7.85641827103761 94.25828980038486
lradius 104.6050092312286
lwrist 27.379411320308105
lhand -19.8645188554094 5.483822195689987
lfingers 7.12502
lthumb 6.470621146022257 35.364992450680994
rclavicle -1.3367476247442021e-15 -2.758979367064353e-15
rhumerus -34.819812206811186 14.692995661214999 -98.20749919853205
rradius 119.73799009249049
rwrist -27.157182838530897
rhand -18.45740009926905 42.16969232534419
rfingers 7.12502
rthumb 7.8288698989774925 12.33469238661931
20
root 0.1552856975609217 18.060598094358937 -22.83108680924582 6.577845675926694 -1.3813904895318676 -4.825550174186699
lfemur -43.39208594507818 5.861457325488187 -13.939909043907472
ltibia 89.35338753205056
lfoot 6.034089182453996 -12.76039529780408
ltoes -13.783499494907074
rfemur -0.6934253885281727 6.432651991121693 33.39279187814627
rtibia 36.21560839459856
rfoot -7.907261067317933 -8.157045822531785
rtoes -18.858781277054305
lowerback 15.88339356874976 -0.06690023247799115 1.9420694583153928
upperback -3.3545093578419807 0.963982167979474 5.317429757043803
thorax -12.79276201401125 0.5693868275616063 4.566181127826381
lowerneck -9.350161785466444 -2.7577974817258473 -6.7748299313455345
upperneck 8.618929668114145 -3.123099440407107 3.283310244936202
head 4.265141899815536 -1.579046618151804 1.9043480948720504
lclavicle -1.3367475330548135e-15 -2.758979408317127e-15
lhumerus -63.71818872593771 1.3498908616042504 95.23358748662869
lradius 105.78600790668632
lwrist 26.83831303785939
lhand -19.781819167757078 4.735554859889529
lfingers 7.12502
lthumb 6.550490833661973 34.61429513010386
rclavicle -1.3367475330548135e-15 -2.758979408317127e-15
rhumerus -40.79440717796264 21.521885655543457 -98.07389956042815
rradius 121.33298845109204
rwrist -28.99587605635053
rhand -16.387909433923394 45.41618323165122
rfingers 7.12502
rthumb 9.825900566521106 15.66538309640299
21
root 0.2337853207017755 18.09998801723253 -20.868662906490826 6.297001802825781 -2.626766626583964 -4.354111575690284
lfemur -41.93346324011629 4.90974316350087 -15.636127484746485
ltibia 85.78713395194612
lfoot 5.884975785499323 -12.576600806848933
ltoes -9.388814996622301
rfemur 2.7813936915669437 6.192215434215732 33.014327630767646
rtibia 34.281868021073976
rfoot -3.3607837033721246 -6.218890405753103
rtoes -15.421572250212286
lowerback 15.396513223075162 0.5290712653734881 3.230620567106069
upperback -1.890509323284784 1.300804738004277 3.252865453329604
thorax -10.041488810869817 0.6916882209039187 2.0797896468498434
lowerneck -17.651311116356233 -3.908603552886724 -3.003447691532766
upperneck 10.03217672959583 -4.902873345473312 2.7147388729422364
head 5.395090076119304 -2.3867571144596758 1.0576792497045946
lclavicle -1.33674755558212e-15 -2.7589793148933107e-15
lhumerus -66.19481329371777 2.081672228946153 93.10451385992425
lradius 106.60092939998043
lwrist 27.27462832485869
lhand -19.49182958553343 4.67584418316044
lfingers 7.12502
lthumb 6.983113285334176 34.16726011804181
rclavicle -1.3367475555376451e-15 -2.758979314861591e-15
rhumerus -39.511928657143265 19.871529815017066 -96.9665575134451
rradius 122.15577409932172
rwrist -26.38469319995287
rhand -17.866849293441348 41.626299672569615
rfingers 7.12502
rthumb 8.804743227129224 12.271927276554534
22
root 0.2856521229329938 18.15127758895464 -21.142290917517563 6.1152214207445095 -3.2298865900290794 -3.847422564429882
lfemur -40.87256190123178 3.876188746743629 -16.341136264624254
ltibia 81.98369357796294
lfoot 5.770099058284048 -12.839979725240111
ltoes -6.334757476235187
rfemur 5.298943418645589 5.974018173137186 32.352850615965465
rtibia 32.303335280129076
rfoot 1.5960620236888055 -4.740914681133027
rtoes -14.05619924174498
lowerback 14.895463916073668 0.9476731380416907 3.112353607240168
upperback -1.4214392061926793 1.81566706014338 2.450186002099615
thorax -9.398111510600877 0.898622714653688 1.2462737526484824
lowerneck -18.59180470196167 -3.94108700692107 -2.324031035216587
upperneck 10.284783454384337 -4.858494584426163 2.48865192949424
head 5.748718031780495 -2.3774516832245984 0.9455283779358652
lclavicle -1.3367475555561086e-15 -2.7589793148753803e-15
lhumerus -66.17161936991367 1.6040573296387448 91.082775001154
lradius 106.13497789545995
lwrist 27.916160832747426
lhand -19.237384824089403 4.950514461222073
lfingers 7.12502
lthumb 7.096297510543222 34.35766972990173
rclavicle -1.3367475555205227e-15 -2.758979314850883e-15
rhumerus -40.264948663928145 18.69378996136251 -97.99898241308613
rradius 123.13677961493075
rwrist -24.98001339898732
rhand -18.70081582108755 38.86131828656058
rfingers 7.12502
rthumb 7.7843972623964035 8.993719042180803
23
root 0.32159683612589196 18.20530915808663 -21.04676831094979 6.029593958583737 -3.446426828263621 -3.3229955924254995
lfemur -39.76917083596025 2.794075813818816 -17.2084026273551
ltibia 77.72259247125396
lfoot 5.491100560345475 -13.52435924318383
ltoes -6.914305805060045
rfemur 7.3273858665742 5.880218934274088 31.69598420348508
rtibia 30.458251348269012
rfoot 6.639832054771841 -3.880588343890019
rtoes -12.172357008002646
lowerback 14.431043598891433 1.200855817470154 2.7917533658480473
upperback -1.2223729748838106 2.0732348099321958 1.821521413760635
thorax -9.17378824380054 1.006891304784278 0.6748005906254971
lowerneck -18.419317427962806 -3.7986166921821596 -2.237998330331585
upperneck 10.425387897640451 -4.761232852183189 2.6506902368329297
head 5.615233647217796 -2.338129864906629 0.9742988647417805
lclavicle -1.3367475555572994e-15 -2.7589793148766027e-15
lhumerus -66.72052395914685 1.2455998931701684 89.54881825571117
lradius 105.30664494616477
lwrist 28.50072784576069
lhand -19.65088001070267 4.685463623175927
lfingers 7.12502
lthumb 6.329557769831159 33.81549826849631
rclavicle -1.3367475555234072e-15 -2.7589793148534946e-15
rhumerus -40.52493412316835 17.812259411679815 -98.41134043811486
rradius 123.75410271480916
rwrist -24.813356613175998
rhand -18.310063184119276 39.77787090262656
rfingers 7.12502
rthumb 8.046933017991378 9.740807957550414
24
root 0.3472694226365921 18.25552809817896 -20.848711579800064 5.99766435118903 -3.4267112216636004 -2.8178456487643966
lfemur -38.455078740523746 1.7305195387894479 -18.113139536278144
ltibia 72.96855217575114
lfoot 5.374550245824597 -14.471405958057886
ltoes -7.6627026980355035
rfemur 8.955078217698585 5.962105199780117 31.137010433865008
rtibia 28.941081300479304
rfoot 11.511453823178108 -3.4439369723637574
rtoes -9.521901419091021
lowerback 13.986671007934245 1.3270450561762257 2.418626924777092
upperback -1.1438122116793283 2.105782083247111 1.2712192469766581
thorax -9.167420213500465 1.0017339439088233 0.3114715653526402
lowerneck -18.116416725262418 -3.8152161622640035 -2.2071555219662065
upperneck 9.79110222068784 -4.832419469179004 2.895098548588048
head 5.207709301372352 -2.3831380120711816 1.0570241795988302
lclavicle -1.3367475555376203e-15 -2.7589793148616948e-15
lhumerus -66.70000642512761 1.1796989389817147 88.3514960317106
lradius 104.6032401031649
lwrist 29.050184427025204
lhand -20.298358720846 4.48134269022243
lfingers 7.12502
lthumb 5.538883061256431 33.42892360166498
rclavicle -1.336747555518055e-15 -2.7589793148496836e-15
rhumerus -40.5470604874208 17.58369126717209 -98.67914140176701
rradius 124.1704327412996
rwrist -24.570326089393227
rhand -17.823002236682914 41.3331854799445
rfingers 7.12502
rthumb 8.563847728635242 11.314952421479866
